{
    "asset" : {
        "generator" : "Khronos glTF Blender I/O v1.6.16",
        "version" : "2.0"
    },
    "scene" : 0,
    "scenes" : [
        {
            "name" : "Scene",
            "nodes" : [
                0,
                4
            ]
        }
    ],
    "nodes" : [
        {
            "mesh" : 0,
            "name" : "Syringe_Big_Body.001"
        },
        {
            "name" : "Bone.001",
            "rotation" : [
                -0.7071068286895752,
                2.794788518188014e-17,
                2.794788518188014e-17,
                0.7071068286895752
            ],
            "translation" : [
                0,
                0,
                0.0441526360809803
            ]
        },
        {
            "name" : "Bone.002",
            "rotation" : [
                0.4999999701976776,
                0.5000000596046448,
                0.5,
                0.5
            ],
            "scale" : [
                1,
                0.9999999403953552,
                1
            ],
            "translation" : [
                0,
                0,
                -0.014031559228897095
            ]
        },
        {
            "children" : [
                1,
                2
            ],
            "name" : "Bone"
        },
        {
            "children" : [
                3
            ],
            "name" : "Armature"
        }
    ],
    "materials" : [
        {
            "doubleSided" : true,
            "name" : "Syringe",
            "pbrMetallicRoughness" : {
                "baseColorTexture" : {
                    "index" : 0
                },
                "metallicFactor" : 0,
                "roughnessFactor" : 0.5
            }
        }
    ],
    "meshes" : [
        {
            "name" : "Cylinder.002",
            "primitives" : [
                {
                    "attributes" : {
                        "POSITION" : 0,
                        "NORMAL" : 1,
                        "TANGENT" : 2,
                        "TEXCOORD_0" : 3
                    },
                    "indices" : 4,
                    "material" : 0
                }
            ]
        }
    ],
    "textures" : [
        {
            "sampler" : 0,
            "source" : 0
        }
    ],
    "images" : [
        {
            "bufferView" : 5,
            "mimeType" : "image/jpeg",
            "name" : "Syringe_Diffuse_Low"
        }
    ],
    "accessors" : [
        {
            "bufferView" : 0,
            "componentType" : 5126,
            "count" : 11562,
            "max" : [
                0.019404374063014984,
                0.011742431670427322,
                0.05160386487841606
            ],
            "min" : [
                -0.01940438337624073,
                -0.01174246147274971,
                -0.08717203140258789
            ],
            "type" : "VEC3"
        },
        {
            "bufferView" : 1,
            "componentType" : 5126,
            "count" : 11562,
            "type" : "VEC3"
        },
        {
            "bufferView" : 2,
            "componentType" : 5126,
            "count" : 11562,
            "type" : "VEC4"
        },
        {
            "bufferView" : 3,
            "componentType" : 5126,
            "count" : 11562,
            "type" : "VEC2"
        },
        {
            "bufferView" : 4,
            "componentType" : 5123,
            "count" : 43017,
            "type" : "SCALAR"
        }
    ],
    "bufferViews" : [
        {
            "buffer" : 0,
            "byteLength" : 138744,
            "byteOffset" : 0
        },
        {
            "buffer" : 0,
            "byteLength" : 138744,
            "byteOffset" : 138744
        },
        {
            "buffer" : 0,
            "byteLength" : 184992,
            "byteOffset" : 277488
        },
        {
            "buffer" : 0,
            "byteLength" : 92496,
            "byteOffset" : 462480
        },
        {
            "buffer" : 0,
            "byteLength" : 86034,
            "byteOffset" : 554976
        },
        {
            "buffer" : 0,
            "byteLength" : 40190,
            "byteOffset" : 641012
        }
    ],
    "samplers" : [
        {
            "magFilter" : 9729,
            "minFilter" : 9987
        }
    ],
    "buffers" : [
        {
            "byteLength" : 681204,
            "uri" : "data:application/octet-stream;base64,"
        }
    ]
}
